<svg viewBox="0.6999073054263996 0.6444806648068345 15.816532735371089 2.965296675839957" xmlns:xlink="http://www.w3.org/1999/xlink" version="1.1" xmlns="http://www.w3.org/2000/svg" style="max-height: 500px" width="15.816532735371089" height="2.965296675839957"><g transform="matrix(1,0,0,1,0.6766453141314175,1.4347411302805182)"><g><path fill-rule="nonzero" fill="#000000" d="M 0.596923828125 0.6027832031249998 Q 0.596923828125 0.5859374999999998 0.566162109375 0.5720214843749998 Q 0.535400390625 0.5581054687499998 0.472412109375 0.5581054687499998 Q 0.440185546875 0.5581054687499998 0.4200439453125 0.5617675781249998 Q 0.39990234375 0.5654296874999998 0.38818359375 0.5720214843749998 Q 0.37646484375 0.5786132812499998 0.3724365234375 0.5881347656249998 Q 0.368408203125 0.5976562499999998 0.368408203125 0.6101074218749998 Q 0.368408203125 0.6342773437499998 0.391845703125 0.6522216796874998 Q 0.415283203125 0.6701660156249998 0.4537353515625 0.6870117187499998 Q 0.4921875 0.7038574218749998 0.541259765625 0.7207031249999998 Q 0.59033203125 0.7375488281249998 0.6416015625 0.7591552734374998 Q 0.69287109375 0.7807617187499998 0.741943359375 0.8089599609374998 Q 0.791015625 0.8371582031249998 0.8294677734375 0.8756103515624998 Q 0.867919921875 0.9140624999999998 0.891357421875 0.9653320312499998 Q 0.914794921875 1.0166015624999998 0.914794921875 1.0839843749999998 Q 0.914794921875 1.1667480468749998 0.8770751953125 1.2264404296874998 Q 0.83935546875 1.2861328124999998 0.77783203125 1.3245849609374998 Q 0.71630859375 1.3630371093749998 0.6375732421875 1.3813476562499998 Q 0.558837890625 1.3996582031249998 0.476806640625 1.3996582031249998 Q 0.39404296875 1.3996582031249998 0.3145751953125 1.3824462890624998 Q 0.235107421875 1.3652343749999998 0.1728515625 1.3344726562499998 Q 0.110595703125 1.3037109374999998 0.072509765625 1.2604980468749998 Q 0.034423828125 1.2172851562499998 0.034423828125 1.1652832031249998 Q 0.034423828125 1.1345214843749998 0.0439453125 1.1114501953124998 Q 0.053466796875 1.0883789062499998 0.0692138671875 1.0733642578124998 Q 0.0849609375 1.0583496093749998 0.10546875 1.0510253906249998 Q 0.1259765625 1.0437011718749998 0.14794921875 1.0437011718749998 Q 0.18310546875 1.0437011718749998 0.205810546875 1.0517578124999998 Q 0.228515625 1.0598144531249998 0.2427978515625 1.0726318359374998 Q 0.257080078125 1.0854492187499998 0.265869140625 1.1019287109374998 Q 0.274658203125 1.1184082031249998 0.28271484375 1.1359863281249998 Q 0.290771484375 1.1535644531249998 0.30029296875 1.1700439453124998 Q 0.309814453125 1.1865234374999998 0.325927734375 1.1993408203124998 Q 0.342041015625 1.2121582031249998 0.3673095703125 1.2202148437499998 Q 0.392578125 1.2282714843749998 0.431396484375 1.2282714843749998 Q 0.49365234375 1.2282714843749998 0.5233154296875 1.2172851562499998 Q 0.552978515625 1.2062988281249998 0.552978515625 1.1740722656249998 Q 0.552978515625 1.1623535156249998 0.5313720703125 1.1510009765624998 Q 0.509765625 1.1396484374999998 0.474609375 1.1271972656249998 Q 0.439453125 1.1147460937499998 0.39404296875 1.0993652343749998 Q 0.3486328125 1.0839843749999998 0.3017578125 1.0631103515624998 Q 0.2548828125 1.0422363281249998 0.20947265625 1.0147705078124998 Q 0.1640625 0.9873046874999998 0.12890625 0.9510498046874998 Q 0.09375 0.9147949218749998 0.0721435546875 0.8679199218749998 Q 0.050537109375 0.8210449218749998 0.050537109375 0.7617187499999998 Q 0.050537109375 0.6965332031249998 0.066650390625 0.6448974609374998 Q 0.082763671875 0.5932617187499998 0.1116943359375 0.5540771484374998 Q 0.140625 0.5148925781249998 0.180908203125 0.4877929687499998 Q 0.22119140625 0.4606933593749998 0.268798828125 0.4434814453124998 Q 0.31640625 0.4262695312499998 0.369873046875 0.4185791015624998 Q 0.42333984375 0.4108886718749998 0.479736328125 0.4108886718749998 Q 0.5771484375 0.4108886718749998 0.646728515625 0.4291992187499998 Q 0.71630859375 0.4475097656249998 0.7613525390625 0.4760742187499998 Q 0.806396484375 0.5046386718749998 0.82763671875 0.5401611328124998 Q 0.848876953125 0.5756835937499998 0.848876953125 0.6101074218749998 Q 0.848876953125 0.6342773437499998 0.8389892578125 0.6558837890624998 Q 0.8291015625 0.6774902343749998 0.81005859375 0.6936035156249998 Q 0.791015625 0.7097167968749998 0.763916015625 0.7192382812499998 Q 0.73681640625 0.7287597656249998 0.70166015625 0.7287597656249998 Q 0.662109375 0.7287597656249998 0.6368408203125 0.7243652343749998 Q 0.611572265625 0.7199707031249998 0.5965576171875 0.7122802734374998 Q 0.58154296875 0.7045898437499998 0.57568359375 0.6939697265624998 Q 0.56982421875 0.6833496093749998 0.56982421875 0.6701660156249998 Q 0.56982421875 0.6569824218749998 0.57421875 0.6503906249999998 Q 0.57861328125 0.6437988281249998 0.5833740234375 0.6375732421874998 Q 0.588134765625 0.6313476562499998 0.592529296875 0.6240234374999998 Q 0.596923828125 0.6166992187499998 0.596923828125 0.6027832031249998 M 1.5 1.3996582031249998 Q 1.412841796875 1.3996582031249998 1.3399658203125 1.3791503906249998 Q 1.26708984375 1.3586425781249998 1.2088623046875 1.3231201171874998 Q 1.150634765625 1.2875976562499998 1.106689453125 1.2392578124999998 Q 1.062744140625 1.1909179687499998 1.033447265625 1.1348876953124998 Q 1.004150390625 1.0788574218749998 0.989501953125 1.0180664062499998 Q 0.974853515625 0.9572753906249998 0.974853515625 0.8964843749999998 Q 0.974853515625 0.8342285156249998 0.9906005859375 0.7738037109374998 Q 1.00634765625 0.7133789062499998 1.0382080078125 0.6591796874999998 Q 1.070068359375 0.6049804687499998 1.11767578125 0.5595703124999998 Q 1.165283203125 0.5141601562499998 1.2293701171875 0.4812011718749998 Q 1.29345703125 0.4482421874999998 1.3736572265625 0.4295654296874998 Q 1.453857421875 0.4108886718749998 1.550537109375 0.4108886718749998 Q 1.635498046875 0.4108886718749998 1.7061767578125 0.4299316406249998 Q 1.77685546875 0.4489746093749998 1.833984375 0.4822998046874998 Q 1.89111328125 0.5156249999999998 1.9339599609375 0.5610351562499998 Q 1.976806640625 0.6064453124999998 2.00537109375 0.6599121093749998 Q 2.033935546875 0.7133789062499998 2.0482177734375 0.7727050781249998 Q 2.0625 0.8320312499999998 2.0625 0.8920898437499998 Q 2.0625 0.9543457031249998 2.047119140625 1.0166015624999998 Q 2.03173828125 1.0788574218749998 2.0006103515625 1.1352539062499998 Q 1.969482421875 1.1916503906249998 1.922607421875 1.2399902343749998 Q 1.875732421875 1.2883300781249998 1.8131103515625 1.3238525390624998 Q 1.75048828125 1.3593749999999998 1.672119140625 1.3795166015624998 Q 1.59375 1.3996582031249998 1.5 1.3996582031249998 M 1.532958984375 1.2121582031249998 Q 1.55712890625 1.2121582031249998 1.5736083984375 1.1978759765624998 Q 1.590087890625 1.1835937499999998 1.600341796875 1.1564941406249998 Q 1.610595703125 1.1293945312499998 1.614990234375 1.0909423828124998 Q 1.619384765625 1.0524902343749998 1.619384765625 1.0048828124999998 Q 1.619384765625 0.9631347656249998 1.61865234375 0.9166259765624998 Q 1.617919921875 0.8701171874999998 1.614990234375 0.8250732421874998 Q 1.612060546875 0.7800292968749998 1.60546875 0.7390136718749998 Q 1.598876953125 0.6979980468749998 1.5867919921875 0.6665039062499998 Q 1.57470703125 0.6350097656249998 1.556396484375 0.6166992187499998 Q 1.5380859375 0.5983886718749998 1.51171875 0.5983886718749998 Q 1.486083984375 0.5983886718749998 1.4681396484375 0.6126708984374998 Q 1.4501953125 0.6269531249999998 1.4384765625 0.6525878906249998 Q 1.4267578125 0.6782226562499998 1.4212646484375 0.7141113281249998 Q 1.415771484375 0.7499999999999998 1.415771484375 0.7932128906249998 Q 1.415771484375 0.8334960937499998 1.417236328125 0.8803710937499998 Q 1.418701171875 0.9272460937499998 1.423095703125 0.9737548828124998 Q 1.427490234375 1.0202636718749998 1.4359130859375 1.0634765624999998 Q 1.4443359375 1.1066894531249998 1.4571533203125 1.1396484374999998 Q 1.469970703125 1.1726074218749998 1.4886474609375 1.1923828124999998 Q 1.50732421875 1.2121582031249998 1.532958984375 1.2121582031249998 M 2.915771484375 0.7141113281249998 Q 2.915771484375 0.6840820312499998 2.90771484375 0.6672363281249998 Q 2.899658203125 0.6503906249999998 2.8875732421875 0.6419677734374998 Q 2.87548828125 0.6335449218749998 2.861572265625 0.6302490234374998 Q 2.84765625 0.6269531249999998 2.8355712890625 0.6232910156249998 Q 2.823486328125 0.6196289062499998 2.8154296875 0.6126708984374998 Q 2.807373046875 0.6057128906249998 2.807373046875 0.5895996093749998 Q 2.807373046875 0.5061035156249998 2.893798828125 0.4691162109374998 Q 2.980224609375 0.4321289062499998 3.1435546875 0.4321289062499998 Q 3.198486328125 0.4321289062499998 3.23583984375 0.4423828124999998 Q 3.273193359375 0.4526367187499998 3.2977294921875 0.4709472656249998 Q 3.322265625 0.4892578124999998 3.3358154296875 0.5148925781249998 Q 3.349365234375 0.5405273437499998 3.3555908203125 0.5716552734374998 Q 3.36181640625 0.6027832031249998 3.3629150390625 0.6379394531249998 Q 3.364013671875 0.6730957031249998 3.364013671875 0.7111816406249998 L 3.364013671875 1.1037597656249998 Q 3.364013671875 1.1330566406249998 3.3717041015625 1.1491699218749998 Q 3.37939453125 1.1652832031249998 3.3914794921875 1.1737060546874998 Q 3.403564453125 1.1821289062499998 3.4171142578125 1.1850585937499998 Q 3.4306640625 1.1879882812499998 3.4427490234375 1.1916503906249998 Q 3.454833984375 1.1953124999999998 3.4625244140625 1.2022705078124998 Q 3.47021484375 1.2092285156249998 3.47021484375 1.2253417968749998 Q 3.47021484375 1.3088378906249998 3.3856201171875 1.3458251953124998 Q 3.301025390625 1.3828124999999998 3.1435546875 1.3828124999999998 Q 3.104736328125 1.3828124999999998 3.07470703125 1.3769531249999998 Q 3.044677734375 1.3710937499999998 3.0223388671875 1.3615722656249998 Q 3 1.3520507812499998 2.98388671875 1.3399658203124998 Q 2.9677734375 1.3278808593749998 2.956787109375 1.3146972656249998 Q 2.93115234375 1.2854003906249998 2.924560546875 1.2465820312499998 Q 2.886474609375 1.2897949218749998 2.83447265625 1.3234863281249998 Q 2.8125 1.3381347656249998 2.78466796875 1.3516845703124998 Q 2.7568359375 1.3652343749999998 2.723876953125 1.3758544921874998 Q 2.69091796875 1.3864746093749998 2.6524658203125 1.3930664062499998 Q 2.614013671875 1.3996582031249998 2.57080078125 1.3996582031249998 Q 2.490234375 1.3996582031249998 2.431640625 1.3795166015624998 Q 2.373046875 1.3593749999999998 2.3323974609375 1.3256835937499998 Q 2.291748046875 1.2919921874999998 2.266845703125 1.2473144531249998 Q 2.241943359375 1.2026367187499998 2.22802734375 1.1535644531249998 Q 2.214111328125 1.1044921874999998 2.2093505859375 1.0543212890624998 Q 2.20458984375 1.0041503906249998 2.20458984375 0.9587402343749998 L 2.20458984375 0.7177734374999998 Q 2.20458984375 0.6870117187499998 2.196533203125 0.6697998046874998 Q 2.1884765625 0.6525878906249998 2.176025390625 0.6434326171874998 Q 2.16357421875 0.6342773437499998 2.149658203125 0.6309814453124998 Q 2.1357421875 0.6276855468749998 2.123291015625 0.6236572265624998 Q 2.11083984375 0.6196289062499998 2.102783203125 0.6126708984374998 Q 2.0947265625 0.6057128906249998 2.0947265625 0.5895996093749998 Q 2.0947265625 0.5061035156249998 2.18115234375 0.4691162109374998 Q 2.267578125 0.4321289062499998 2.430908203125 0.4321289062499998 Q 2.50341796875 0.4321289062499998 2.546630859375 0.4497070312499998 Q 2.58984375 0.4672851562499998 2.612548828125 0.4976806640624998 Q 2.63525390625 0.5280761718749998 2.641845703125 0.5698242187499998 Q 2.6484375 0.6115722656249998 2.6484375 0.6599121093749998 L 2.6484375 1.0217285156249998 Q 2.6484375 1.0671386718749998 2.6553955078125 1.1026611328124998 Q 2.662353515625 1.1381835937499998 2.6788330078125 1.1630859374999998 Q 2.6953125 1.1879882812499998 2.722412109375 1.2008056640624998 Q 2.74951171875 1.2136230468749998 2.789794921875 1.2136230468749998 Q 2.8154296875 1.2136230468749998 2.838134765625 1.2055664062499998 Q 2.86083984375 1.1975097656249998 2.877685546875 1.1828613281249998 Q 2.89453125 1.1682128906249998 2.9044189453125 1.1480712890624998 Q 2.914306640625 1.1279296874999998 2.914306640625 1.1037597656249998 L 2.915771484375 0.7141113281249998 M 4.089111328125 1.0993652343749998 Q 4.089111328125 1.1293945312499998 4.09716796875 1.1462402343749998 Q 4.105224609375 1.1630859374999998 4.1173095703125 1.1715087890624998 Q 4.12939453125 1.1799316406249998 4.143310546875 1.1832275390624998 Q 4.1572265625 1.1865234374999998 4.1693115234375 1.1901855468749998 Q 4.181396484375 1.1938476562499998 4.189453125 1.2008056640624998 Q 4.197509765625 1.2077636718749998 4.197509765625 1.2238769531249998 Q 4.197509765625 1.3073730468749998 4.111083984375 1.3443603515624998 Q 4.024658203125 1.3813476562499998 3.861328125 1.3813476562499998 Q 3.7822265625 1.3813476562499998 3.721435546875 1.3725585937499998 Q 3.66064453125 1.3637695312499998 3.618896484375 1.3443603515624998 Q 3.5771484375 1.3249511718749998 3.5555419921875 1.2952880859374998 Q 3.533935546875 1.2656249999999998 3.533935546875 1.2238769531249998 Q 3.533935546875 1.2077636718749998 3.5419921875 1.2008056640624998 Q 3.550048828125 1.1938476562499998 3.561767578125 1.1901855468749998 Q 3.573486328125 1.1865234374999998 3.58740234375 1.1835937499999998 Q 3.601318359375 1.1806640624999998 3.613037109375 1.1722412109374998 Q 3.624755859375 1.1638183593749998 3.6328125 1.1480712890624998 Q 3.640869140625 1.1323242187499998 3.640869140625 1.1022949218749998 L 3.640869140625 0.7111816406249998 Q 3.640869140625 0.6818847656249998 3.6328125 0.6657714843749998 Q 3.624755859375 0.6496582031249998 3.613037109375 0.6412353515624998 Q 3.601318359375 0.6328124999999998 3.58740234375 0.6298828124999998 Q 3.573486328125 0.6269531249999998 3.561767578125 0.6232910156249998 Q 3.550048828125 0.6196289062499998 3.5419921875 0.6126708984374998 Q 3.533935546875 0.6057128906249998 3.533935546875 0.5895996093749998 Q 3.533935546875 0.5478515624999998 3.5555419921875 0.5181884765624998 Q 3.5771484375 0.4885253906249998 3.618896484375 0.4691162109374998 Q 3.66064453125 0.4497070312499998 3.721435546875 0.4409179687499998 Q 3.7822265625 0.4321289062499998 3.861328125 0.4321289062499998 Q 3.93310546875 0.4321289062499998 3.9755859375 0.4442138671874998 Q 4.01806640625 0.4562988281249998 4.04150390625 0.4709472656249998 Q 4.068603515625 0.4885253906249998 4.078857421875 0.5097656249999998 Q 4.116943359375 0.4826660156249998 4.169677734375 0.4606933593749998 Q 4.215087890625 0.4416503906249998 4.2806396484375 0.4262695312499998 Q 4.34619140625 0.4108886718749998 4.43408203125 0.4108886718749998 Q 4.5146484375 0.4108886718749998 4.5728759765625 0.4310302734374998 Q 4.631103515625 0.4511718749999998 4.6717529296875 0.4852294921874998 Q 4.71240234375 0.5192871093749998 4.7373046875 0.5643310546874998 Q 4.76220703125 0.6093749999999998 4.7757568359375 0.6584472656249998 Q 4.789306640625 0.7075195312499998 4.7940673828125 0.7576904296874998 Q 4.798828125 0.8078613281249998 4.798828125 0.8532714843749998 L 4.798828125 1.0957031249999998 Q 4.798828125 1.1264648437499998 4.806884765625 1.1436767578124998 Q 4.81494140625 1.1608886718749998 4.827392578125 1.1700439453124998 Q 4.83984375 1.1791992187499998 4.8541259765625 1.1824951171874998 Q 4.868408203125 1.1857910156249998 4.880859375 1.1898193359374998 Q 4.893310546875 1.1938476562499998 4.9013671875 1.2008056640624998 Q 4.909423828125 1.2077636718749998 4.909423828125 1.2238769531249998 Q 4.909423828125 1.3073730468749998 4.8233642578125 1.3443603515624998 Q 4.7373046875 1.3813476562499998 4.573974609375 1.3813476562499998 Q 4.494873046875 1.3813476562499998 4.43408203125 1.3725585937499998 Q 4.373291015625 1.3637695312499998 4.33154296875 1.3443603515624998 Q 4.289794921875 1.3249511718749998 4.2681884765625 1.2952880859374998 Q 4.24658203125 1.2656249999999998 4.24658203125 1.2238769531249998 Q 4.24658203125 1.2077636718749998 4.254638671875 1.2008056640624998 Q 4.2626953125 1.1938476562499998 4.275146484375 1.1901855468749998 Q 4.28759765625 1.1865234374999998 4.301513671875 1.1835937499999998 Q 4.3154296875 1.1806640624999998 4.327880859375 1.1722412109374998 Q 4.34033203125 1.1638183593749998 4.348388671875 1.1480712890624998 Q 4.3564453125 1.1323242187499998 4.3564453125 1.1022949218749998 L 4.3564453125 0.7895507812499998 Q 4.3564453125 0.7441406249999998 4.3494873046875 0.7086181640624998 Q 4.342529296875 0.6730957031249998 4.3260498046875 0.6485595703124998 Q 4.3095703125 0.6240234374999998 4.282470703125 0.6112060546874998 Q 4.25537109375 0.5983886718749998 4.215087890625 0.5983886718749998 Q 4.189453125 0.5983886718749998 4.166748046875 0.6068115234374998 Q 4.14404296875 0.6152343749999998 4.127197265625 0.6302490234374998 Q 4.1103515625 0.6452636718749998 4.1004638671875 0.6661376953124998 Q 4.090576171875 0.6870117187499998 4.090576171875 0.7111816406249998 L 4.089111328125 1.0993652343749998 M 6.07177734375 1.0993652343749998 Q 6.07177734375 1.1293945312499998 6.079833984375 1.1462402343749998 Q 6.087890625 1.1630859374999998 6.099609375 1.1715087890624998 Q 6.111328125 1.1799316406249998 6.1256103515625 1.1832275390624998 Q 6.139892578125 1.1865234374999998 6.151611328125 1.1901855468749998 Q 6.163330078125 1.1938476562499998 6.17138671875 1.2008056640624998 Q 6.179443359375 1.2077636718749998 6.179443359375 1.2238769531249998 Q 6.179443359375 1.3073730468749998 6.093017578125 1.3443603515624998 Q 6.006591796875 1.3813476562499998 5.84326171875 1.3813476562499998 Q 5.79931640625 1.3813476562499998 5.766357421875 1.3747558593749998 Q 5.7333984375 1.3681640624999998 5.7095947265625 1.3560791015624998 Q 5.685791015625 1.3439941406249998 5.67041015625 1.3267822265624998 Q 5.655029296875 1.3095703124999998 5.6455078125 1.2883300781249998 Q 5.62646484375 1.3059082031249998 5.5989990234375 1.3256835937499998 Q 5.571533203125 1.3454589843749998 5.5323486328125 1.3619384765624998 Q 5.4931640625 1.3784179687499998 5.4422607421875 1.3890380859374998 Q 5.391357421875 1.3996582031249998 5.326171875 1.3996582031249998 Q 5.252197265625 1.3996582031249998 5.1954345703125 1.3791503906249998 Q 5.138671875 1.3586425781249998 5.0972900390625 1.3231201171874998 Q 5.055908203125 1.2875976562499998 5.028076171875 1.2399902343749998 Q 5.000244140625 1.1923828124999998 4.9833984375 1.1381835937499998 Q 4.966552734375 1.0839843749999998 4.9595947265625 1.0261230468749998 Q 4.95263671875 0.9682617187499998 4.95263671875 0.9118652343749998 Q 4.95263671875 0.8540039062499998 4.9610595703125 0.7946777343749998 Q 4.969482421875 0.7353515624999998 4.9888916015625 0.6796874999999998 Q 5.00830078125 0.6240234374999998 5.0386962890625 0.5749511718749998 Q 5.069091796875 0.5258789062499998 5.1126708984375 0.4896240234374998 Q 5.15625 0.4533691406249998 5.2144775390625 0.4321289062499998 Q 5.272705078125 0.4108886718749998 5.3466796875 0.4108886718749998 Q 5.398681640625 0.4108886718749998 5.441162109375 0.4185791015624998 Q 5.483642578125 0.4262695312499998 5.5177001953125 0.4387207031249998 Q 5.5517578125 0.4511718749999998 5.5777587890625 0.4672851562499998 Q 5.603759765625 0.4833984374999998 5.622802734375 0.4995117187499998 L 5.622802734375 0.2790527343749998 Q 5.622802734375 0.24902343749999978 5.6151123046875 0.23327636718749978 Q 5.607421875 0.21752929687499978 5.5953369140625 0.20910644531249978 Q 5.583251953125 0.20068359374999978 5.5697021484375 0.19775390624999978 Q 5.55615234375 0.19482421874999978 5.5440673828125 0.19116210937499978 Q 5.531982421875 0.18749999999999978 5.5242919921875 0.18054199218749978 Q 5.5166015625 0.17358398437499978 5.5166015625 0.15747070312499978 Q 5.5166015625 0.11572265624999978 5.5382080078125 0.08605957031249978 Q 5.559814453125 0.05639648437499978 5.6015625 0.03698730468749978 Q 5.643310546875 0.017578124999999778 5.7041015625 0.008789062499999778 Q 5.764892578125 -2.220446049250313e-16 5.84326171875 -2.220446049250313e-16 Q 5.92236328125 -2.220446049250313e-16 5.9681396484375 0.008056640624999778 Q 6.013916015625 0.016113281249999778 6.0377197265625 0.03552246093749978 Q 6.0615234375 0.05493164062499978 6.068115234375 0.08789062499999978 Q 6.07470703125 0.12084960937499978 6.07470703125 0.17065429687499978 L 6.07177734375 1.0993652343749998 M 5.5166015625 1.2136230468749998 Q 5.5458984375 1.2136230468749998 5.574462890625 1.2033691406249998 Q 5.60302734375 1.1931152343749998 5.624267578125 1.1806640624999998 Q 5.622802734375 1.1616210937499998 5.622802734375 1.1422119140624998 Q 5.622802734375 1.1228027343749998 5.622802734375 1.1022949218749998 L 5.622802734375 0.6386718749999998 Q 5.597900390625 0.6240234374999998 5.56787109375 0.6112060546874998 Q 5.537841796875 0.5983886718749998 5.50634765625 0.5983886718749998 Q 5.47265625 0.5983886718749998 5.4510498046875 0.6137695312499998 Q 5.429443359375 0.6291503906249998 5.4169921875 0.6654052734374998 Q 5.404541015625 0.7016601562499998 5.3997802734375 0.7628173828124998 Q 5.39501953125 0.8239746093749998 5.39501953125 0.9147949218749998 Q 5.39501953125 0.9697265624999998 5.398681640625 1.0231933593749998 Q 5.40234375 1.0766601562499998 5.414794921875 1.1187744140624998 Q 5.42724609375 1.1608886718749998 5.451416015625 1.1872558593749998 Q 5.4755859375 1.2136230468749998 5.5166015625 1.2136230468749998 M 6.8173828125 0.6027832031249998 Q 6.8173828125 0.5859374999999998 6.78662109375 0.5720214843749998 Q 6.755859375 0.5581054687499998 6.69287109375 0.5581054687499998 Q 6.66064453125 0.5581054687499998 6.6405029296875 0.5617675781249998 Q 6.620361328125 0.5654296874999998 6.608642578125 0.5720214843749998 Q 6.596923828125 0.5786132812499998 6.5928955078125 0.5881347656249998 Q 6.5888671875 0.5976562499999998 6.5888671875 0.6101074218749998 Q 6.5888671875 0.6342773437499998 6.6123046875 0.6522216796874998 Q 6.6357421875 0.6701660156249998 6.6741943359375 0.6870117187499998 Q 6.712646484375 0.7038574218749998 6.76171875 0.7207031249999998 Q 6.810791015625 0.7375488281249998 6.862060546875 0.7591552734374998 Q 6.913330078125 0.7807617187499998 6.96240234375 0.8089599609374998 Q 7.011474609375 0.8371582031249998 7.0499267578125 0.8756103515624998 Q 7.08837890625 0.9140624999999998 7.11181640625 0.9653320312499998 Q 7.13525390625 1.0166015624999998 7.13525390625 1.0839843749999998 Q 7.13525390625 1.1667480468749998 7.0975341796875 1.2264404296874998 Q 7.059814453125 1.2861328124999998 6.998291015625 1.3245849609374998 Q 6.936767578125 1.3630371093749998 6.8580322265625 1.3813476562499998 Q 6.779296875 1.3996582031249998 6.697265625 1.3996582031249998 Q 6.614501953125 1.3996582031249998 6.5350341796875 1.3824462890624998 Q 6.45556640625 1.3652343749999998 6.393310546875 1.3344726562499998 Q 6.3310546875 1.3037109374999998 6.29296875 1.2604980468749998 Q 6.2548828125 1.2172851562499998 6.2548828125 1.1652832031249998 Q 6.2548828125 1.1345214843749998 6.264404296875 1.1114501953124998 Q 6.27392578125 1.0883789062499998 6.2896728515625 1.0733642578124998 Q 6.305419921875 1.0583496093749998 6.325927734375 1.0510253906249998 Q 6.346435546875 1.0437011718749998 6.368408203125 1.0437011718749998 Q 6.403564453125 1.0437011718749998 6.42626953125 1.0517578124999998 Q 6.448974609375 1.0598144531249998 6.4632568359375 1.0726318359374998 Q 6.4775390625 1.0854492187499998 6.486328125 1.1019287109374998 Q 6.4951171875 1.1184082031249998 6.503173828125 1.1359863281249998 Q 6.51123046875 1.1535644531249998 6.520751953125 1.1700439453124998 Q 6.5302734375 1.1865234374999998 6.54638671875 1.1993408203124998 Q 6.5625 1.2121582031249998 6.5877685546875 1.2202148437499998 Q 6.613037109375 1.2282714843749998 6.65185546875 1.2282714843749998 Q 6.714111328125 1.2282714843749998 6.7437744140625 1.2172851562499998 Q 6.7734375 1.2062988281249998 6.7734375 1.1740722656249998 Q 6.7734375 1.1623535156249998 6.7518310546875 1.1510009765624998 Q 6.730224609375 1.1396484374999998 6.695068359375 1.1271972656249998 Q 6.659912109375 1.1147460937499998 6.614501953125 1.0993652343749998 Q 6.569091796875 1.0839843749999998 6.522216796875 1.0631103515624998 Q 6.475341796875 1.0422363281249998 6.429931640625 1.0147705078124998 Q 6.384521484375 0.9873046874999998 6.349365234375 0.9510498046874998 Q 6.314208984375 0.9147949218749998 6.2926025390625 0.8679199218749998 Q 6.27099609375 0.8210449218749998 6.27099609375 0.7617187499999998 Q 6.27099609375 0.6965332031249998 6.287109375 0.6448974609374998 Q 6.30322265625 0.5932617187499998 6.3321533203125 0.5540771484374998 Q 6.361083984375 0.5148925781249998 6.4013671875 0.4877929687499998 Q 6.441650390625 0.4606933593749998 6.4892578125 0.4434814453124998 Q 6.536865234375 0.4262695312499998 6.59033203125 0.4185791015624998 Q 6.643798828125 0.4108886718749998 6.7001953125 0.4108886718749998 Q 6.797607421875 0.4108886718749998 6.8671875 0.4291992187499998 Q 6.936767578125 0.4475097656249998 6.9818115234375 0.4760742187499998 Q 7.02685546875 0.5046386718749998 7.048095703125 0.5401611328124998 Q 7.0693359375 0.5756835937499998 7.0693359375 0.6101074218749998 Q 7.0693359375 0.6342773437499998 7.0594482421875 0.6558837890624998 Q 7.049560546875 0.6774902343749998 7.030517578125 0.6936035156249998 Q 7.011474609375 0.7097167968749998 6.984375 0.7192382812499998 Q 6.957275390625 0.7287597656249998 6.922119140625 0.7287597656249998 Q 6.882568359375 0.7287597656249998 6.8572998046875 0.7243652343749998 Q 6.83203125 0.7199707031249998 6.8170166015625 0.7122802734374998 Q 6.802001953125 0.7045898437499998 6.796142578125 0.6939697265624998 Q 6.790283203125 0.6833496093749998 6.790283203125 0.6701660156249998 Q 6.790283203125 0.6569824218749998 6.794677734375 0.6503906249999998 Q 6.799072265625 0.6437988281249998 6.8038330078125 0.6375732421874998 Q 6.80859375 0.6313476562499998 6.81298828125 0.6240234374999998 Q 6.8173828125 0.6166992187499998 6.8173828125 0.6027832031249998 M 7.74755859375 0.5383300781249998 Q 7.764404296875 0.5200195312499998 7.792236328125 0.4980468749999998 Q 7.820068359375 0.4760742187499998 7.861083984375 0.4566650390624998 Q 7.902099609375 0.4372558593749998 7.9566650390625 0.4240722656249998 Q 8.01123046875 0.4108886718749998 8.082275390625 0.4108886718749998 Q 8.164306640625 0.4108886718749998 8.222900390625 0.4317626953124998 Q 8.281494140625 0.4526367187499998 8.3221435546875 0.4877929687499998 Q 8.36279296875 0.5229492187499998 8.3873291015625 0.5687255859374998 Q 8.411865234375 0.6145019531249998 8.425048828125 0.6646728515624998 Q 8.438232421875 0.7148437499999998 8.442626953125 0.7657470703124998 Q 8.447021484375 0.8166503906249998 8.447021484375 0.8620605468749998 L 8.447021484375 1.0935058593749998 Q 8.447021484375 1.1249999999999998 8.455078125 1.1425781249999998 Q 8.463134765625 1.1601562499999998 8.4755859375 1.1693115234374998 Q 8.488037109375 1.1784667968749998 8.5023193359375 1.1821289062499998 Q 8.5166015625 1.1857910156249998 8.529052734375 1.1898193359374998 Q 8.54150390625 1.1938476562499998 8.549560546875 1.2008056640624998 Q 8.5576171875 1.2077636718749998 8.5576171875 1.2238769531249998 Q 8.5576171875 1.3073730468749998 8.4715576171875 1.3443603515624998 Q 8.385498046875 1.3813476562499998 8.22216796875 1.3813476562499998 Q 8.14306640625 1.3813476562499998 8.082275390625 1.3725585937499998 Q 8.021484375 1.3637695312499998 7.979736328125 1.3443603515624998 Q 7.93798828125 1.3249511718749998 7.9163818359375 1.2952880859374998 Q 7.894775390625 1.2656249999999998 7.894775390625 1.2238769531249998 Q 7.894775390625 1.2077636718749998 7.90283203125 1.2008056640624998 Q 7.910888671875 1.1938476562499998 7.92333984375 1.1898193359374998 Q 7.935791015625 1.1857910156249998 7.94970703125 1.1824951171874998 Q 7.963623046875 1.1791992187499998 7.97607421875 1.1704101562499998 Q 7.988525390625 1.1616210937499998 7.99658203125 1.1447753906249998 Q 8.004638671875 1.1279296874999998 8.004638671875 1.0964355468749998 L 8.004638671875 0.7976074218749998 Q 8.004638671875 0.7507324218749998 7.998046875 0.7133789062499998 Q 7.991455078125 0.6760253906249998 7.975341796875 0.6507568359374998 Q 7.959228515625 0.6254882812499998 7.9317626953125 0.6119384765624998 Q 7.904296875 0.5983886718749998 7.86328125 0.5983886718749998 Q 7.842041015625 0.5983886718749998 7.824462890625 0.6042480468749998 Q 7.806884765625 0.6101074218749998 7.7918701171875 0.6185302734374998 Q 7.77685546875 0.6269531249999998 7.7655029296875 0.6364746093749998 Q 7.754150390625 0.6459960937499998 7.74609375 0.6540527343749998 L 7.74609375 1.0993652343749998 Q 7.74609375 1.1293945312499998 7.754150390625 1.1462402343749998 Q 7.76220703125 1.1630859374999998 7.7742919921875 1.1715087890624998 Q 7.786376953125 1.1799316406249998 7.80029296875 1.1832275390624998 Q 7.814208984375 1.1865234374999998 7.8262939453125 1.1901855468749998 Q 7.83837890625 1.1938476562499998 7.846435546875 1.2008056640624998 Q 7.8544921875 1.2077636718749998 7.8544921875 1.2238769531249998 Q 7.8544921875 1.3073730468749998 7.76806640625 1.3443603515624998 Q 7.681640625 1.3813476562499998 7.518310546875 1.3813476562499998 Q 7.36083984375 1.3813476562499998 7.2762451171875 1.3443603515624998 Q 7.191650390625 1.3073730468749998 7.191650390625 1.2238769531249998 Q 7.191650390625 1.2077636718749998 7.1993408203125 1.2008056640624998 Q 7.20703125 1.1938476562499998 7.2191162109375 1.1901855468749998 Q 7.231201171875 1.1865234374999998 7.2447509765625 1.1835937499999998 Q 7.25830078125 1.1806640624999998 7.2703857421875 1.1722412109374998 Q 7.282470703125 1.1638183593749998 7.2901611328125 1.1480712890624998 Q 7.2978515625 1.1323242187499998 7.2978515625 1.1022949218749998 L 7.2978515625 0.2790527343749998 Q 7.2978515625 0.24902343749999978 7.2901611328125 0.23327636718749978 Q 7.282470703125 0.21752929687499978 7.2703857421875 0.20910644531249978 Q 7.25830078125 0.20068359374999978 7.2447509765625 0.19775390624999978 Q 7.231201171875 0.19482421874999978 7.2191162109375 0.19116210937499978 Q 7.20703125 0.18749999999999978 7.1993408203125 0.18054199218749978 Q 7.191650390625 0.17358398437499978 7.191650390625 0.15747070312499978 Q 7.191650390625 0.07397460937499978 7.2762451171875 0.03698730468749978 Q 7.36083984375 -2.220446049250313e-16 7.518310546875 -2.220446049250313e-16 Q 7.597412109375 -2.220446049250313e-16 7.6431884765625 0.008056640624999778 Q 7.68896484375 0.016113281249999778 7.71240234375 0.03552246093749978 Q 7.73583984375 0.05493164062499978 7.742431640625 0.08789062499999978 Q 7.7490234375 0.12084960937499978 7.7490234375 0.17065429687499978 L 7.74755859375 0.5383300781249998 M 9.100341796875 1.2312011718749998 Q 9.12451171875 1.2312011718749998 9.1395263671875 1.2235107421874998 Q 9.154541015625 1.2158203124999998 9.16259765625 1.2015380859374998 Q 9.170654296875 1.1872558593749998 9.1732177734375 1.1663818359374998 Q 9.17578125 1.1455078124999998 9.17578125 1.1191406249999998 Q 9.17578125 1.0964355468749998 9.175048828125 1.0612792968749998 Q 9.17431640625 1.0261230468749998 9.173583984375 0.9924316406249998 Q 9.172119140625 0.9528808593749998 9.17138671875 0.9104003906249998 Q 9.1611328125 0.9089355468749998 9.1519775390625 0.9078369140624998 Q 9.142822265625 0.9067382812499998 9.134033203125 0.9067382812499998 Q 9.0966796875 0.9067382812499998 9.0714111328125 0.9217529296874998 Q 9.046142578125 0.9367675781249998 9.03076171875 0.9635009765624998 Q 9.015380859375 0.9902343749999998 9.0091552734375 1.0264892578124998 Q 9.0029296875 1.0627441406249998 9.0029296875 1.1052246093749998 Q 9.0029296875 1.1308593749999998 9.005859375 1.1539306640624998 Q 9.0087890625 1.1770019531249998 9.01904296875 1.1942138671874998 Q 9.029296875 1.2114257812499998 9.0487060546875 1.2213134765624998 Q 9.068115234375 1.2312011718749998 9.100341796875 1.2312011718749998 M 9.453369140625 1.3813476562499998 Q 9.416015625 1.3813476562499998 9.3790283203125 1.3773193359374998 Q 9.342041015625 1.3732910156249998 9.3087158203125 1.3608398437499998 Q 9.275390625 1.3483886718749998 9.24755859375 1.3249511718749998 Q 9.2197265625 1.3015136718749998 9.199951171875 1.2626953124999998 Q 9.185302734375 1.2971191406249998 9.1527099609375 1.3227539062499998 Q 9.1201171875 1.3483886718749998 9.0787353515625 1.3656005859374998 Q 9.037353515625 1.3828124999999998 8.9915771484375 1.3912353515624998 Q 8.94580078125 1.3996582031249998 8.904052734375 1.3996582031249998 Q 8.830078125 1.3996582031249998 8.7744140625 1.3820800781249998 Q 8.71875 1.3645019531249998 8.6806640625 1.3319091796874998 Q 8.642578125 1.2993164062499998 8.62353515625 1.2539062499999998 Q 8.6044921875 1.2084960937499998 8.6044921875 1.1520996093749998 Q 8.6044921875 1.0854492187499998 8.6268310546875 1.0257568359374998 Q 8.649169921875 0.9660644531249998 8.7030029296875 0.9213867187499998 Q 8.7568359375 0.8767089843749998 8.846923828125 0.8507080078124998 Q 8.93701171875 0.8247070312499998 9.072509765625 0.8247070312499998 L 9.1728515625 0.8247070312499998 Q 9.1728515625 0.7434082031249998 9.1673583984375 0.6899414062499998 Q 9.161865234375 0.6364746093749998 9.150146484375 0.6049804687499998 Q 9.138427734375 0.5734863281249998 9.120849609375 0.5610351562499998 Q 9.103271484375 0.5485839843749998 9.078369140625 0.5485839843749998 Q 9.050537109375 0.5485839843749998 9.0318603515625 0.5654296874999998 Q 9.01318359375 0.5822753906249998 9.0018310546875 0.6141357421874998 Q 8.990478515625 0.6459960937499998 8.9857177734375 0.6910400390624998 Q 8.98095703125 0.7360839843749998 8.98095703125 0.7932128906249998 Q 8.949462890625 0.7932128906249998 8.9146728515625 0.7921142578124998 Q 8.8798828125 0.7910156249999998 8.8458251953125 0.7866210937499998 Q 8.811767578125 0.7822265624999998 8.7813720703125 0.7730712890624998 Q 8.7509765625 0.7639160156249998 8.7275390625 0.7481689453124998 Q 8.7041015625 0.7324218749999998 8.690185546875 0.7082519531249998 Q 8.67626953125 0.6840820312499998 8.67626953125 0.6496582031249998 Q 8.67626953125 0.6013183593749998 8.7015380859375 0.5581054687499998 Q 8.726806640625 0.5148925781249998 8.7791748046875 0.4822998046874998 Q 8.83154296875 0.4497070312499998 8.912109375 0.4302978515624998 Q 8.99267578125 0.4108886718749998 9.10400390625 0.4108886718749998 Q 9.233642578125 0.4108886718749998 9.327392578125 0.4372558593749998 Q 9.421142578125 0.4636230468749998 9.4815673828125 0.5163574218749998 Q 9.5419921875 0.5690917968749998 9.5709228515625 0.6492919921874998 Q 9.599853515625 0.7294921874999998 9.599853515625 0.8371582031249998 L 9.599853515625 1.0964355468749998 Q 9.599853515625 1.1279296874999998 9.6082763671875 1.1455078124999998 Q 9.61669921875 1.1630859374999998 9.6287841796875 1.1722412109374998 Q 9.640869140625 1.1813964843749998 9.655517578125 1.1850585937499998 Q 9.670166015625 1.1887207031249998 9.6822509765625 1.1927490234374998 Q 9.6943359375 1.1967773437499998 9.7027587890625 1.2037353515624998 Q 9.711181640625 1.2106933593749998 9.711181640625 1.2268066406249998 Q 9.711181640625 1.3000488281249998 9.6456298828125 1.3406982421874998 Q 9.580078125 1.3813476562499998 9.453369140625 1.3813476562499998 M 10.29638671875 1.0993652343749998 Q 10.29638671875 1.1293945312499998 10.304443359375 1.1462402343749998 Q 10.3125 1.1630859374999998 10.3245849609375 1.1715087890624998 Q 10.336669921875 1.1799316406249998 10.3505859375 1.1832275390624998 Q 10.364501953125 1.1865234374999998 10.3765869140625 1.1901855468749998 Q 10.388671875 1.1938476562499998 10.396728515625 1.2008056640624998 Q 10.40478515625 1.2077636718749998 10.40478515625 1.2238769531249998 Q 10.40478515625 1.3073730468749998 10.318359375 1.3443603515624998 Q 10.23193359375 1.3813476562499998 10.068603515625 1.3813476562499998 Q 9.989501953125 1.3813476562499998 9.9287109375 1.3725585937499998 Q 9.867919921875 1.3637695312499998 9.826171875 1.3443603515624998 Q 9.784423828125 1.3249511718749998 9.7628173828125 1.2952880859374998 Q 9.7412109375 1.2656249999999998 9.7412109375 1.2238769531249998 Q 9.7412109375 1.2077636718749998 9.749267578125 1.2008056640624998 Q 9.75732421875 1.1938476562499998 9.76904296875 1.1901855468749998 Q 9.78076171875 1.1865234374999998 9.794677734375 1.1835937499999998 Q 9.80859375 1.1806640624999998 9.8203125 1.1722412109374998 Q 9.83203125 1.1638183593749998 9.840087890625 1.1480712890624998 Q 9.84814453125 1.1323242187499998 9.84814453125 1.1022949218749998 L 9.84814453125 0.7111816406249998 Q 9.84814453125 0.6818847656249998 9.840087890625 0.6657714843749998 Q 9.83203125 0.6496582031249998 9.8203125 0.6412353515624998 Q 9.80859375 0.6328124999999998 9.794677734375 0.6298828124999998 Q 9.78076171875 0.6269531249999998 9.76904296875 0.6232910156249998 Q 9.75732421875 0.6196289062499998 9.749267578125 0.6126708984374998 Q 9.7412109375 0.6057128906249998 9.7412109375 0.5895996093749998 Q 9.7412109375 0.5478515624999998 9.7628173828125 0.5181884765624998 Q 9.784423828125 0.4885253906249998 9.826171875 0.4691162109374998 Q 9.867919921875 0.4497070312499998 9.9287109375 0.4409179687499998 Q 9.989501953125 0.4321289062499998 10.068603515625 0.4321289062499998 Q 10.14111328125 0.4321289062499998 10.1846923828125 0.4464111328124998 Q 10.228271484375 0.4606933593749998 10.253173828125 0.4885253906249998 Q 10.273681640625 0.4753417968749998 10.295654296875 0.4632568359374998 Q 10.317626953125 0.4511718749999998 10.342529296875 0.4420166015624998 Q 10.367431640625 0.4328613281249998 10.396728515625 0.4277343749999998 Q 10.426025390625 0.4226074218749998 10.461181640625 0.4226074218749998 Q 10.505126953125 0.4226074218749998 10.5457763671875 0.4317626953124998 Q 10.58642578125 0.4409179687499998 10.617919921875 0.4617919921874998 Q 10.6494140625 0.4826660156249998 10.6680908203125 0.5159912109374998 Q 10.686767578125 0.5493164062499998 10.686767578125 0.5983886718749998 Q 10.686767578125 0.6306152343749998 10.67578125 0.6613769531249998 Q 10.664794921875 0.6921386718749998 10.6431884765625 0.7159423828124998 Q 10.62158203125 0.7397460937499998 10.5889892578125 0.7543945312499998 Q 10.556396484375 0.7690429687499998 10.513916015625 0.7690429687499998 Q 10.471435546875 0.7690429687499998 10.447265625 0.7565917968749998 Q 10.423095703125 0.7441406249999998 10.409912109375 0.7258300781249998 Q 10.396728515625 0.7075195312499998 10.3905029296875 0.6859130859374998 Q 10.38427734375 0.6643066406249998 10.3773193359375 0.6459960937499998 Q 10.370361328125 0.6276855468749998 10.3590087890625 0.6152343749999998 Q 10.34765625 0.6027832031249998 10.324951171875 0.6027832031249998 Q 10.30224609375 0.6027832031249998 10.294921875 0.6082763671874998 Q 10.28759765625 0.6137695312499998 10.28759765625 0.6240234374999998 Q 10.28759765625 0.6372070312499998 10.292724609375 0.6577148437499998 Q 10.2978515625 0.6782226562499998 10.2978515625 0.7075195312499998 L 10.29638671875 1.0993652343749998 M 11.281494140625 0.5983886718749998 Q 11.258056640625 0.5983886718749998 11.237548828125 0.6090087890624998 Q 11.217041015625 0.6196289062499998 11.2020263671875 0.6416015624999998 Q 11.18701171875 0.6635742187499998 11.1785888671875 0.6976318359374998 Q 11.170166015625 0.7316894531249998 11.170166015625 0.7785644531249998 L 11.40380859375 0.7785644531249998 Q 11.40380859375 0.7272949218749998 11.395751953125 0.6925048828124998 Q 11.3876953125 0.6577148437499998 11.372314453125 0.6368408203124998 Q 11.35693359375 0.6159667968749998 11.3338623046875 0.6071777343749998 Q 11.310791015625 0.5983886718749998 11.281494140625 0.5983886718749998 M 11.227294921875 0.4108886718749998 Q 11.325439453125 0.4108886718749998 11.4041748046875 0.4401855468749998 Q 11.48291015625 0.4694824218749998 11.5382080078125 0.5207519531249998 Q 11.593505859375 0.5720214843749998 11.6231689453125 0.6412353515624998 Q 11.65283203125 0.7104492187499998 11.65283203125 0.7902832031249998 Q 11.65283203125 0.8232421874999998 11.6436767578125 0.8415527343749998 Q 11.634521484375 0.8598632812499998 11.61767578125 0.8686523437499998 Q 11.600830078125 0.8774414062499998 11.575927734375 0.8796386718749998 Q 11.551025390625 0.8818359374999998 11.51953125 0.8818359374999998 L 11.167236328125 0.8818359374999998 Q 11.167236328125 0.9624023437499998 11.1837158203125 1.0125732421874998 Q 11.2001953125 1.0627441406249998 11.2294921875 1.0905761718749998 Q 11.2587890625 1.1184082031249998 11.2998046875 1.1282958984374998 Q 11.3408203125 1.1381835937499998 11.390625 1.1381835937499998 Q 11.4169921875 1.1381835937499998 11.4451904296875 1.1330566406249998 Q 11.473388671875 1.1279296874999998 11.4993896484375 1.1198730468749998 Q 11.525390625 1.1118164062499998 11.54736328125 1.1030273437499998 Q 11.5693359375 1.0942382812499998 11.583984375 1.0861816406249998 Q 11.595703125 1.0795898437499998 11.606689453125 1.0795898437499998 Q 11.62353515625 1.0795898437499998 11.633056640625 1.0938720703124998 Q 11.642578125 1.1081542968749998 11.642578125 1.1257324218749998 Q 11.642578125 1.1315917968749998 11.641845703125 1.1367187499999998 Q 11.64111328125 1.1418457031249998 11.638916015625 1.1469726562499998 Q 11.61767578125 1.2011718749999998 11.5810546875 1.2473144531249998 Q 11.54443359375 1.2934570312499998 11.4920654296875 1.3275146484374998 Q 11.439697265625 1.3615722656249998 11.370849609375 1.3806152343749998 Q 11.302001953125 1.3996582031249998 11.21630859375 1.3996582031249998 Q 11.13427734375 1.3996582031249998 11.0665283203125 1.3802490234374998 Q 10.998779296875 1.3608398437499998 10.9442138671875 1.3260498046874998 Q 10.8896484375 1.2912597656249998 10.8486328125 1.2443847656249998 Q 10.8076171875 1.1975097656249998 10.780517578125 1.1422119140624998 Q 10.75341796875 1.0869140624999998 10.7398681640625 1.0264892578124998 Q 10.726318359375 0.9660644531249998 10.726318359375 0.9045410156249998 Q 10.726318359375 0.8422851562499998 10.740234375 0.7811279296874998 Q 10.754150390625 0.7199707031249998 10.781982421875 0.6650390624999998 Q 10.809814453125 0.6101074218749998 10.8515625 0.5635986328124998 Q 10.893310546875 0.5170898437499998 10.948974609375 0.4830322265624998 Q 11.004638671875 0.4489746093749998 11.07421875 0.4299316406249998 Q 11.143798828125 0.4108886718749998 11.227294921875 0.4108886718749998"/></g><g/><g clip-path="url(#SvgjsClipPath1002)"><g clip-path="url(#SvgjsClipPath10003b0c0192-46ef-487d-9d36-3172d18eec97)"><path fill-rule="nonzero" transform="matrix(1,0,0,1,0,0)" fill="#0094ff" d="M 15.203931706744747 1.4624692781929194 C 14.612786941618534 1.636480123237419 14.41872993143478 1.1598952115965182 13.940299614699835 1.1639478659206985 C 13.46186929796489 1.1680005202448793 13.230216682041643 1.636480123237419 12.722694096765261 1.5205090776213614 C 12.153079057736257 1.3902451886298448 11.900113822197458 0.48842104825886656 12.358642711447587 -0.01913772143112724 C 13.303960516976286 -1.0654824097554672 14.813718990387946 -0.9550837638351575 15.534874353610409 0.024971078757944798 C 16.030383713568686 0.6985077536712957 15.602647760299611 1.3450870404461224 15.203931706744747 1.4624692781929194 Z"/></g><g clip-path="url(#SvgjsClipPath10003b0c0192-46ef-487d-9d36-3172d18eec97)"><path fill-rule="nonzero" transform="matrix(1,0,0,1,0,0)" fill="#171517" d="M 12.1268091734563 1.5031405590891613 C 12.216329412724358 1.7688065238046327 12.431988517832526 1.993077519351691 12.663387842860509 2.0611765857633664 C 12.747740266593759 2.0869593011856655 12.835387329580945 2.100366583800865 12.92358996112106 2.1009794407329965 C 13.139538541538107 2.1009794407329965 13.29943746527519 2.0120381520826793 13.454053464625398 1.9260278009346714 C 13.597090451620799 1.8464220909954139 13.744939965626168 1.7642111032763248 13.932954178737257 1.7642111032763248 L 13.938779869328267 1.7642111032763248 C 14.142425749118335 1.7659117707159377 14.304242446776678 1.8595208487217838 14.460522929152887 1.9500542515708865 C 14.621217909989367 2.043048194545384 14.787340552867155 2.1392263659174526 14.998512790687844 2.1392263659174526 C 15.055020238328332 2.139004919805267 15.111324850028925 2.132450815403814 15.166372285418852 2.1196867825687282 C 15.431929696893503 2.059041705360454 15.649434207095725 1.8359647954624827 15.748181471834013 1.5230419865739804 C 15.863247907109846 1.1584840194657837 15.788382355353336 0.769971970548588 15.55278563834674 0.5091909016702979 C 15.113977254513383 0.02352370221360145 14.532385174579872 -0.2439514831823102 13.915549475791448 -0.2439514831823102 C 13.606235220411504 -0.2441692465009626 13.300925403546877 -0.17401010482865664 13.02273525440905 -0.03878585802067669 C 12.740248447912617 0.09877710923182303 12.495569262522032 0.30315254048065843 12.309902306316593 0.5566286679113722 C 12.08787474441328 0.8586237838900318 12.022851353158352 1.1946684330745327 12.1268091734563 1.5031405590891613 Z M 14.99851279068785 2.053143645942221 C 14.810353839922328 2.053143645942221 14.661418793508695 1.9668438194853448 14.503618565760917 1.8755143595368482 C 14.337568291710348 1.779408556991998 14.165873249136808 1.680118526049577 13.939141713464357 1.6780921988874868 L 13.932917994323647 1.6780921988874868 C 13.722397075947919 1.6780921988874868 13.564596848200141 1.7658755863023234 13.411862438357591 1.8508004050420692 C 13.2668353086137 1.9314554629759821 13.116887098619024 2.0148605363441607 12.92337285463941 2.0148605363441607 C 12.84339591678349 2.0141503528947693 12.763943079145637 2.0018649624454756 12.687486662323943 1.9783866474265386 C 12.481778270958177 1.9178139390454825 12.289168637318776 1.7157239890405895 12.208224104075997 1.4754232982648547 C 12.113493309248273 1.1943427733520555 12.174138386456546 0.8861601226462951 12.37905072072292 0.607684875513325 C 12.738394849477018 0.12048751668041835 13.309983508789548 -0.164330762435294 13.915332369309793 -0.1578325787934799 C 14.50763503567149 -0.15783257879347723 15.066394750617873 0.09954715520558943 15.488630673018422 0.5669412257898668 C 15.703855565163291 0.8051432205762957 15.771737525093315 1.1615596946225217 15.665934299701314 1.4971339464301066 C 15.57648642926048 1.7805664582274785 15.382501787903944 1.9820050887874117 15.14708599296539 2.035738942996412 C 15.098372810912712 2.047125636506494 15.048538191155163 2.053024230077409 14.998512790687844 2.053324568010267 Z"/></g></g></g><defs><clipPath id="SvgjsClipPath1002"><path d="M 12.078466796875 -0.7580958161491008 h 3.7228333941366647 v 2.8975392885482014 h -3.7228333941366647 Z"/></clipPath><clipPath id="SvgjsClipPath10003b0c0192-46ef-487d-9d36-3172d18eec97"><path d="M 12.078466796875 -0.7580958161491008 L 15.801300191011665 -0.7580958161491008 L 15.801300191011665 2.1394434723991007 L 12.078466796875 2.1394434723991007 Z"/></clipPath></defs></svg>